<mxfile host="app.diagrams.net" modified="2024-03-10T13:26:09.308Z" agent="Mozilla/5.0 (Windows NT 10.0; Win64; x64) AppleWebKit/537.36 (KHTML, like Gecko) Chrome/122.0.0.0 Safari/537.36" etag="dS8HkXFaxJqcpfIbOOav" version="24.0.3" type="device">
  <diagram name="Page-1" id="sZi7YRQUznMkWtvt5kRm">
    <mxGraphModel dx="1750" dy="2052" grid="1" gridSize="10" guides="1" tooltips="1" connect="1" arrows="1" fold="1" page="1" pageScale="1" pageWidth="827" pageHeight="1169" math="0" shadow="0">
      <root>
        <mxCell id="0" />
        <mxCell id="1" parent="0" />
        <mxCell id="WkTNOZYevjF56CsXgl2D-112" value="" style="rounded=1;whiteSpace=wrap;html=1;dashed=1;" vertex="1" parent="1">
          <mxGeometry x="10" y="-300" width="880" height="200" as="geometry" />
        </mxCell>
        <mxCell id="WkTNOZYevjF56CsXgl2D-109" value="" style="rounded=1;whiteSpace=wrap;html=1;dashed=1;" vertex="1" parent="1">
          <mxGeometry x="10" y="-14" width="200" height="1104" as="geometry" />
        </mxCell>
        <mxCell id="WkTNOZYevjF56CsXgl2D-108" value="" style="rounded=1;whiteSpace=wrap;html=1;dashed=1;" vertex="1" parent="1">
          <mxGeometry x="225" y="-14" width="200" height="1104" as="geometry" />
        </mxCell>
        <mxCell id="WkTNOZYevjF56CsXgl2D-106" value="" style="rounded=1;whiteSpace=wrap;html=1;dashed=1;" vertex="1" parent="1">
          <mxGeometry x="450" y="-14" width="200" height="890" as="geometry" />
        </mxCell>
        <mxCell id="WkTNOZYevjF56CsXgl2D-104" value="" style="rounded=1;whiteSpace=wrap;html=1;dashed=1;" vertex="1" parent="1">
          <mxGeometry x="690" y="-14" width="210" height="610" as="geometry" />
        </mxCell>
        <mxCell id="WkTNOZYevjF56CsXgl2D-1" value="App" style="swimlane;fontStyle=0;childLayout=stackLayout;horizontal=1;startSize=26;horizontalStack=0;resizeParent=1;resizeParentMax=0;resizeLast=0;collapsible=1;marginBottom=0;align=center;fontSize=14;" vertex="1" parent="1">
          <mxGeometry x="370" y="-290" width="160" height="180" as="geometry" />
        </mxCell>
        <mxCell id="WkTNOZYevjF56CsXgl2D-2" value="currentSection" style="text;strokeColor=none;fillColor=none;spacingLeft=4;spacingRight=4;overflow=hidden;rotatable=0;points=[[0,0.5],[1,0.5]];portConstraint=eastwest;fontSize=12;whiteSpace=wrap;html=1;" vertex="1" parent="WkTNOZYevjF56CsXgl2D-1">
          <mxGeometry y="26" width="160" height="30" as="geometry" />
        </mxCell>
        <mxCell id="WkTNOZYevjF56CsXgl2D-3" value="auth" style="text;strokeColor=none;fillColor=none;spacingLeft=4;spacingRight=4;overflow=hidden;rotatable=0;points=[[0,0.5],[1,0.5]];portConstraint=eastwest;fontSize=12;whiteSpace=wrap;html=1;" vertex="1" parent="WkTNOZYevjF56CsXgl2D-1">
          <mxGeometry y="56" width="160" height="30" as="geometry" />
        </mxCell>
        <mxCell id="WkTNOZYevjF56CsXgl2D-4" value="user" style="text;strokeColor=none;fillColor=none;spacingLeft=4;spacingRight=4;overflow=hidden;rotatable=0;points=[[0,0.5],[1,0.5]];portConstraint=eastwest;fontSize=12;whiteSpace=wrap;html=1;" vertex="1" parent="WkTNOZYevjF56CsXgl2D-1">
          <mxGeometry y="86" width="160" height="30" as="geometry" />
        </mxCell>
        <mxCell id="WkTNOZYevjF56CsXgl2D-101" value="notifications" style="text;strokeColor=none;fillColor=none;spacingLeft=4;spacingRight=4;overflow=hidden;rotatable=0;points=[[0,0.5],[1,0.5]];portConstraint=eastwest;fontSize=12;whiteSpace=wrap;html=1;" vertex="1" parent="WkTNOZYevjF56CsXgl2D-1">
          <mxGeometry y="116" width="160" height="34" as="geometry" />
        </mxCell>
        <mxCell id="WkTNOZYevjF56CsXgl2D-102" value="pushes" style="text;strokeColor=none;fillColor=none;spacingLeft=4;spacingRight=4;overflow=hidden;rotatable=0;points=[[0,0.5],[1,0.5]];portConstraint=eastwest;fontSize=12;whiteSpace=wrap;html=1;" vertex="1" parent="WkTNOZYevjF56CsXgl2D-1">
          <mxGeometry y="150" width="160" height="30" as="geometry" />
        </mxCell>
        <mxCell id="WkTNOZYevjF56CsXgl2D-5" value="Topic" style="swimlane;fontStyle=0;childLayout=stackLayout;horizontal=1;startSize=26;horizontalStack=0;resizeParent=1;resizeParentMax=0;resizeLast=0;collapsible=1;marginBottom=0;align=center;fontSize=14;" vertex="1" parent="1">
          <mxGeometry x="710" y="10" width="160" height="86" as="geometry" />
        </mxCell>
        <mxCell id="WkTNOZYevjF56CsXgl2D-6" value="data" style="text;strokeColor=none;fillColor=none;spacingLeft=4;spacingRight=4;overflow=hidden;rotatable=0;points=[[0,0.5],[1,0.5]];portConstraint=eastwest;fontSize=12;whiteSpace=wrap;html=1;" vertex="1" parent="WkTNOZYevjF56CsXgl2D-5">
          <mxGeometry y="26" width="160" height="30" as="geometry" />
        </mxCell>
        <mxCell id="WkTNOZYevjF56CsXgl2D-8" value="init()" style="text;strokeColor=none;fillColor=none;spacingLeft=4;spacingRight=4;overflow=hidden;rotatable=0;points=[[0,0.5],[1,0.5]];portConstraint=eastwest;fontSize=12;whiteSpace=wrap;html=1;" vertex="1" parent="WkTNOZYevjF56CsXgl2D-5">
          <mxGeometry y="56" width="160" height="30" as="geometry" />
        </mxCell>
        <mxCell id="WkTNOZYevjF56CsXgl2D-9" value="Sections" style="swimlane;fontStyle=0;childLayout=stackLayout;horizontal=1;startSize=20;horizontalStack=0;resizeParent=1;resizeParentMax=0;resizeLast=0;collapsible=1;marginBottom=0;align=center;fontSize=14;" vertex="1" parent="1">
          <mxGeometry x="710" y="266" width="160" height="80" as="geometry" />
        </mxCell>
        <mxCell id="WkTNOZYevjF56CsXgl2D-10" value="data" style="text;strokeColor=none;fillColor=none;spacingLeft=4;spacingRight=4;overflow=hidden;rotatable=0;points=[[0,0.5],[1,0.5]];portConstraint=eastwest;fontSize=12;whiteSpace=wrap;html=1;" vertex="1" parent="WkTNOZYevjF56CsXgl2D-9">
          <mxGeometry y="20" width="160" height="30" as="geometry" />
        </mxCell>
        <mxCell id="WkTNOZYevjF56CsXgl2D-11" value="init()" style="text;strokeColor=none;fillColor=none;spacingLeft=4;spacingRight=4;overflow=hidden;rotatable=0;points=[[0,0.5],[1,0.5]];portConstraint=eastwest;fontSize=12;whiteSpace=wrap;html=1;" vertex="1" parent="WkTNOZYevjF56CsXgl2D-9">
          <mxGeometry y="50" width="160" height="30" as="geometry" />
        </mxCell>
        <mxCell id="WkTNOZYevjF56CsXgl2D-16" value="Progress" style="swimlane;fontStyle=0;childLayout=stackLayout;horizontal=1;startSize=20;horizontalStack=0;resizeParent=1;resizeParentMax=0;resizeLast=0;collapsible=1;marginBottom=0;align=center;fontSize=14;" vertex="1" parent="1">
          <mxGeometry x="710" y="470" width="160" height="80" as="geometry" />
        </mxCell>
        <mxCell id="WkTNOZYevjF56CsXgl2D-17" value="data" style="text;strokeColor=none;fillColor=none;spacingLeft=4;spacingRight=4;overflow=hidden;rotatable=0;points=[[0,0.5],[1,0.5]];portConstraint=eastwest;fontSize=12;whiteSpace=wrap;html=1;" vertex="1" parent="WkTNOZYevjF56CsXgl2D-16">
          <mxGeometry y="20" width="160" height="30" as="geometry" />
        </mxCell>
        <mxCell id="WkTNOZYevjF56CsXgl2D-18" value="init()" style="text;strokeColor=none;fillColor=none;spacingLeft=4;spacingRight=4;overflow=hidden;rotatable=0;points=[[0,0.5],[1,0.5]];portConstraint=eastwest;fontSize=12;whiteSpace=wrap;html=1;" vertex="1" parent="WkTNOZYevjF56CsXgl2D-16">
          <mxGeometry y="50" width="160" height="30" as="geometry" />
        </mxCell>
        <mxCell id="WkTNOZYevjF56CsXgl2D-23" value="TopicsPage" style="swimlane;fontStyle=0;childLayout=stackLayout;horizontal=1;startSize=26;horizontalStack=0;resizeParent=1;resizeParentMax=0;resizeLast=0;collapsible=1;marginBottom=0;align=center;fontSize=14;" vertex="1" parent="1">
          <mxGeometry x="30" y="176" width="160" height="56" as="geometry" />
        </mxCell>
        <mxCell id="WkTNOZYevjF56CsXgl2D-27" value="PracticePage" style="swimlane;fontStyle=0;childLayout=stackLayout;horizontal=1;startSize=26;horizontalStack=0;resizeParent=1;resizeParentMax=0;resizeLast=0;collapsible=1;marginBottom=0;align=center;fontSize=14;" vertex="1" parent="1">
          <mxGeometry x="30" y="820" width="160" height="56" as="geometry" />
        </mxCell>
        <mxCell id="WkTNOZYevjF56CsXgl2D-28" value="practiceTypes" style="text;strokeColor=none;fillColor=none;spacingLeft=4;spacingRight=4;overflow=hidden;rotatable=0;points=[[0,0.5],[1,0.5]];portConstraint=eastwest;fontSize=12;whiteSpace=wrap;html=1;" vertex="1" parent="WkTNOZYevjF56CsXgl2D-27">
          <mxGeometry y="26" width="160" height="30" as="geometry" />
        </mxCell>
        <mxCell id="WkTNOZYevjF56CsXgl2D-29" value="Task" style="swimlane;fontStyle=0;childLayout=stackLayout;horizontal=1;startSize=24;horizontalStack=0;resizeParent=1;resizeParentMax=0;resizeLast=0;collapsible=1;marginBottom=0;align=center;fontSize=14;" vertex="1" parent="1">
          <mxGeometry x="710" y="140" width="160" height="54" as="geometry" />
        </mxCell>
        <mxCell id="WkTNOZYevjF56CsXgl2D-30" value="data" style="text;strokeColor=none;fillColor=none;spacingLeft=4;spacingRight=4;overflow=hidden;rotatable=0;points=[[0,0.5],[1,0.5]];portConstraint=eastwest;fontSize=12;whiteSpace=wrap;html=1;" vertex="1" parent="WkTNOZYevjF56CsXgl2D-29">
          <mxGeometry y="24" width="160" height="30" as="geometry" />
        </mxCell>
        <mxCell id="WkTNOZYevjF56CsXgl2D-33" value="ProgressPage" style="swimlane;fontStyle=0;childLayout=stackLayout;horizontal=1;startSize=26;horizontalStack=0;resizeParent=1;resizeParentMax=0;resizeLast=0;collapsible=1;marginBottom=0;align=center;fontSize=14;" vertex="1" parent="1">
          <mxGeometry x="30" y="970" width="160" height="56" as="geometry" />
        </mxCell>
        <mxCell id="WkTNOZYevjF56CsXgl2D-34" value="Item 3" style="text;strokeColor=none;fillColor=none;spacingLeft=4;spacingRight=4;overflow=hidden;rotatable=0;points=[[0,0.5],[1,0.5]];portConstraint=eastwest;fontSize=12;whiteSpace=wrap;html=1;" vertex="1" parent="WkTNOZYevjF56CsXgl2D-33">
          <mxGeometry y="26" width="160" height="30" as="geometry" />
        </mxCell>
        <mxCell id="WkTNOZYevjF56CsXgl2D-35" value="TopicIndexPage" style="swimlane;fontStyle=0;childLayout=stackLayout;horizontal=1;startSize=26;horizontalStack=0;resizeParent=1;resizeParentMax=0;resizeLast=0;collapsible=1;marginBottom=0;align=center;fontSize=14;" vertex="1" parent="1">
          <mxGeometry x="30" y="250" width="160" height="56" as="geometry" />
        </mxCell>
        <mxCell id="WkTNOZYevjF56CsXgl2D-36" value="id" style="text;strokeColor=none;fillColor=none;spacingLeft=4;spacingRight=4;overflow=hidden;rotatable=0;points=[[0,0.5],[1,0.5]];portConstraint=eastwest;fontSize=12;whiteSpace=wrap;html=1;" vertex="1" parent="WkTNOZYevjF56CsXgl2D-35">
          <mxGeometry y="26" width="160" height="30" as="geometry" />
        </mxCell>
        <mxCell id="WkTNOZYevjF56CsXgl2D-37" value="TopicVideoPage" style="swimlane;fontStyle=0;childLayout=stackLayout;horizontal=1;startSize=26;horizontalStack=0;resizeParent=1;resizeParentMax=0;resizeLast=0;collapsible=1;marginBottom=0;align=center;fontSize=14;" vertex="1" parent="1">
          <mxGeometry x="30" y="320" width="160" height="56" as="geometry" />
        </mxCell>
        <mxCell id="WkTNOZYevjF56CsXgl2D-38" value="id" style="text;strokeColor=none;fillColor=none;spacingLeft=4;spacingRight=4;overflow=hidden;rotatable=0;points=[[0,0.5],[1,0.5]];portConstraint=eastwest;fontSize=12;whiteSpace=wrap;html=1;" vertex="1" parent="WkTNOZYevjF56CsXgl2D-37">
          <mxGeometry y="26" width="160" height="30" as="geometry" />
        </mxCell>
        <mxCell id="WkTNOZYevjF56CsXgl2D-39" value="TopicLectionPage" style="swimlane;fontStyle=0;childLayout=stackLayout;horizontal=1;startSize=26;horizontalStack=0;resizeParent=1;resizeParentMax=0;resizeLast=0;collapsible=1;marginBottom=0;align=center;fontSize=14;" vertex="1" parent="1">
          <mxGeometry x="30" y="390" width="160" height="56" as="geometry" />
        </mxCell>
        <mxCell id="WkTNOZYevjF56CsXgl2D-40" value="id" style="text;strokeColor=none;fillColor=none;spacingLeft=4;spacingRight=4;overflow=hidden;rotatable=0;points=[[0,0.5],[1,0.5]];portConstraint=eastwest;fontSize=12;whiteSpace=wrap;html=1;" vertex="1" parent="WkTNOZYevjF56CsXgl2D-39">
          <mxGeometry y="26" width="160" height="30" as="geometry" />
        </mxCell>
        <mxCell id="WkTNOZYevjF56CsXgl2D-42" value="TopicNewWordsPage" style="swimlane;fontStyle=0;childLayout=stackLayout;horizontal=1;startSize=26;horizontalStack=0;resizeParent=1;resizeParentMax=0;resizeLast=0;collapsible=1;marginBottom=0;align=center;fontSize=14;" vertex="1" parent="1">
          <mxGeometry x="30" y="460" width="160" height="56" as="geometry" />
        </mxCell>
        <mxCell id="WkTNOZYevjF56CsXgl2D-43" value="id" style="text;strokeColor=none;fillColor=none;spacingLeft=4;spacingRight=4;overflow=hidden;rotatable=0;points=[[0,0.5],[1,0.5]];portConstraint=eastwest;fontSize=12;whiteSpace=wrap;html=1;" vertex="1" parent="WkTNOZYevjF56CsXgl2D-42">
          <mxGeometry y="26" width="160" height="30" as="geometry" />
        </mxCell>
        <mxCell id="WkTNOZYevjF56CsXgl2D-44" value="TopicPracticePage" style="swimlane;fontStyle=0;childLayout=stackLayout;horizontal=1;startSize=26;horizontalStack=0;resizeParent=1;resizeParentMax=0;resizeLast=0;collapsible=1;marginBottom=0;align=center;fontSize=14;" vertex="1" parent="1">
          <mxGeometry x="30" y="530" width="160" height="56" as="geometry" />
        </mxCell>
        <mxCell id="WkTNOZYevjF56CsXgl2D-45" value="id" style="text;strokeColor=none;fillColor=none;spacingLeft=4;spacingRight=4;overflow=hidden;rotatable=0;points=[[0,0.5],[1,0.5]];portConstraint=eastwest;fontSize=12;whiteSpace=wrap;html=1;" vertex="1" parent="WkTNOZYevjF56CsXgl2D-44">
          <mxGeometry y="26" width="160" height="30" as="geometry" />
        </mxCell>
        <mxCell id="WkTNOZYevjF56CsXgl2D-46" value="TopicList" style="swimlane;fontStyle=0;childLayout=stackLayout;horizontal=1;startSize=26;horizontalStack=0;resizeParent=1;resizeParentMax=0;resizeLast=0;collapsible=1;marginBottom=0;align=center;fontSize=14;" vertex="1" parent="1">
          <mxGeometry x="250" y="90" width="160" height="86" as="geometry" />
        </mxCell>
        <mxCell id="WkTNOZYevjF56CsXgl2D-47" value="topics" style="text;strokeColor=none;fillColor=none;spacingLeft=4;spacingRight=4;overflow=hidden;rotatable=0;points=[[0,0.5],[1,0.5]];portConstraint=eastwest;fontSize=12;whiteSpace=wrap;html=1;" vertex="1" parent="WkTNOZYevjF56CsXgl2D-46">
          <mxGeometry y="26" width="160" height="30" as="geometry" />
        </mxCell>
        <mxCell id="WkTNOZYevjF56CsXgl2D-48" value="init()" style="text;strokeColor=none;fillColor=none;spacingLeft=4;spacingRight=4;overflow=hidden;rotatable=0;points=[[0,0.5],[1,0.5]];portConstraint=eastwest;fontSize=12;whiteSpace=wrap;html=1;" vertex="1" parent="WkTNOZYevjF56CsXgl2D-46">
          <mxGeometry y="56" width="160" height="30" as="geometry" />
        </mxCell>
        <mxCell id="WkTNOZYevjF56CsXgl2D-50" style="edgeStyle=orthogonalEdgeStyle;rounded=0;orthogonalLoop=1;jettySize=auto;html=1;exitX=1;exitY=0.75;exitDx=0;exitDy=0;entryX=0;entryY=0.5;entryDx=0;entryDy=0;" edge="1" parent="1" source="WkTNOZYevjF56CsXgl2D-23" target="WkTNOZYevjF56CsXgl2D-47">
          <mxGeometry relative="1" as="geometry">
            <mxPoint x="230" y="217" as="sourcePoint" />
            <Array as="points">
              <mxPoint x="230" y="217" />
              <mxPoint x="230" y="131" />
            </Array>
          </mxGeometry>
        </mxCell>
        <mxCell id="WkTNOZYevjF56CsXgl2D-51" value="TopicCard" style="swimlane;fontStyle=0;childLayout=stackLayout;horizontal=1;startSize=26;horizontalStack=0;resizeParent=1;resizeParentMax=0;resizeLast=0;collapsible=1;marginBottom=0;align=center;fontSize=14;" vertex="1" parent="1">
          <mxGeometry x="480" y="140" width="160" height="116" as="geometry" />
        </mxCell>
        <mxCell id="WkTNOZYevjF56CsXgl2D-52" value="imageUrl" style="text;strokeColor=none;fillColor=none;spacingLeft=4;spacingRight=4;overflow=hidden;rotatable=0;points=[[0,0.5],[1,0.5]];portConstraint=eastwest;fontSize=12;whiteSpace=wrap;html=1;" vertex="1" parent="WkTNOZYevjF56CsXgl2D-51">
          <mxGeometry y="26" width="160" height="30" as="geometry" />
        </mxCell>
        <mxCell id="WkTNOZYevjF56CsXgl2D-53" value="title" style="text;strokeColor=none;fillColor=none;spacingLeft=4;spacingRight=4;overflow=hidden;rotatable=0;points=[[0,0.5],[1,0.5]];portConstraint=eastwest;fontSize=12;whiteSpace=wrap;html=1;" vertex="1" parent="WkTNOZYevjF56CsXgl2D-51">
          <mxGeometry y="56" width="160" height="30" as="geometry" />
        </mxCell>
        <mxCell id="WkTNOZYevjF56CsXgl2D-54" value="progress" style="text;strokeColor=none;fillColor=none;spacingLeft=4;spacingRight=4;overflow=hidden;rotatable=0;points=[[0,0.5],[1,0.5]];portConstraint=eastwest;fontSize=12;whiteSpace=wrap;html=1;" vertex="1" parent="WkTNOZYevjF56CsXgl2D-51">
          <mxGeometry y="86" width="160" height="30" as="geometry" />
        </mxCell>
        <mxCell id="WkTNOZYevjF56CsXgl2D-58" value="WordsToLearnWidget" style="swimlane;fontStyle=0;childLayout=stackLayout;horizontal=1;startSize=26;horizontalStack=0;resizeParent=1;resizeParentMax=0;resizeLast=0;collapsible=1;marginBottom=0;align=center;fontSize=14;" vertex="1" parent="1">
          <mxGeometry x="250" y="430" width="160" height="86" as="geometry" />
        </mxCell>
        <mxCell id="WkTNOZYevjF56CsXgl2D-59" value="tasks" style="text;strokeColor=none;fillColor=none;spacingLeft=4;spacingRight=4;overflow=hidden;rotatable=0;points=[[0,0.5],[1,0.5]];portConstraint=eastwest;fontSize=12;whiteSpace=wrap;html=1;" vertex="1" parent="WkTNOZYevjF56CsXgl2D-58">
          <mxGeometry y="26" width="160" height="30" as="geometry" />
        </mxCell>
        <mxCell id="WkTNOZYevjF56CsXgl2D-60" value="isComplete" style="text;strokeColor=none;fillColor=none;spacingLeft=4;spacingRight=4;overflow=hidden;rotatable=0;points=[[0,0.5],[1,0.5]];portConstraint=eastwest;fontSize=12;whiteSpace=wrap;html=1;" vertex="1" parent="WkTNOZYevjF56CsXgl2D-58">
          <mxGeometry y="56" width="160" height="30" as="geometry" />
        </mxCell>
        <mxCell id="WkTNOZYevjF56CsXgl2D-62" value="WordCard" style="swimlane;fontStyle=0;childLayout=stackLayout;horizontal=1;startSize=20;horizontalStack=0;resizeParent=1;resizeParentMax=0;resizeLast=0;collapsible=1;marginBottom=0;align=center;fontSize=14;" vertex="1" parent="1">
          <mxGeometry x="480" y="340" width="160" height="170" as="geometry" />
        </mxCell>
        <mxCell id="WkTNOZYevjF56CsXgl2D-63" value="ka" style="text;strokeColor=none;fillColor=none;spacingLeft=4;spacingRight=4;overflow=hidden;rotatable=0;points=[[0,0.5],[1,0.5]];portConstraint=eastwest;fontSize=12;whiteSpace=wrap;html=1;" vertex="1" parent="WkTNOZYevjF56CsXgl2D-62">
          <mxGeometry y="20" width="160" height="30" as="geometry" />
        </mxCell>
        <mxCell id="WkTNOZYevjF56CsXgl2D-64" value="ru" style="text;strokeColor=none;fillColor=none;spacingLeft=4;spacingRight=4;overflow=hidden;rotatable=0;points=[[0,0.5],[1,0.5]];portConstraint=eastwest;fontSize=12;whiteSpace=wrap;html=1;" vertex="1" parent="WkTNOZYevjF56CsXgl2D-62">
          <mxGeometry y="50" width="160" height="30" as="geometry" />
        </mxCell>
        <mxCell id="WkTNOZYevjF56CsXgl2D-65" value="transcription" style="text;strokeColor=none;fillColor=none;spacingLeft=4;spacingRight=4;overflow=hidden;rotatable=0;points=[[0,0.5],[1,0.5]];portConstraint=eastwest;fontSize=12;whiteSpace=wrap;html=1;" vertex="1" parent="WkTNOZYevjF56CsXgl2D-62">
          <mxGeometry y="80" width="160" height="30" as="geometry" />
        </mxCell>
        <mxCell id="WkTNOZYevjF56CsXgl2D-66" value="soundUrl" style="text;strokeColor=none;fillColor=none;spacingLeft=4;spacingRight=4;overflow=hidden;rotatable=0;points=[[0,0.5],[1,0.5]];portConstraint=eastwest;fontSize=12;whiteSpace=wrap;html=1;" vertex="1" parent="WkTNOZYevjF56CsXgl2D-62">
          <mxGeometry y="110" width="160" height="30" as="geometry" />
        </mxCell>
        <mxCell id="WkTNOZYevjF56CsXgl2D-67" value="imageUrl" style="text;strokeColor=none;fillColor=none;spacingLeft=4;spacingRight=4;overflow=hidden;rotatable=0;points=[[0,0.5],[1,0.5]];portConstraint=eastwest;fontSize=12;whiteSpace=wrap;html=1;" vertex="1" parent="WkTNOZYevjF56CsXgl2D-62">
          <mxGeometry y="140" width="160" height="30" as="geometry" />
        </mxCell>
        <mxCell id="WkTNOZYevjF56CsXgl2D-70" style="edgeStyle=orthogonalEdgeStyle;rounded=0;orthogonalLoop=1;jettySize=auto;html=1;exitX=1;exitY=0.25;exitDx=0;exitDy=0;entryX=0;entryY=0.5;entryDx=0;entryDy=0;" edge="1" parent="1" source="WkTNOZYevjF56CsXgl2D-58" target="WkTNOZYevjF56CsXgl2D-8">
          <mxGeometry relative="1" as="geometry">
            <Array as="points">
              <mxPoint x="430" y="451" />
              <mxPoint x="430" y="320" />
              <mxPoint x="680" y="320" />
              <mxPoint x="680" y="81" />
            </Array>
          </mxGeometry>
        </mxCell>
        <mxCell id="WkTNOZYevjF56CsXgl2D-72" value="PracticeWidget" style="swimlane;fontStyle=0;childLayout=stackLayout;horizontal=1;startSize=30;horizontalStack=0;resizeParent=1;resizeParentMax=0;resizeLast=0;collapsible=1;marginBottom=0;align=center;fontSize=14;" vertex="1" parent="1">
          <mxGeometry x="250" y="630" width="160" height="120" as="geometry" />
        </mxCell>
        <mxCell id="WkTNOZYevjF56CsXgl2D-73" value="tasksQueue" style="text;strokeColor=none;fillColor=none;spacingLeft=4;spacingRight=4;overflow=hidden;rotatable=0;points=[[0,0.5],[1,0.5]];portConstraint=eastwest;fontSize=12;whiteSpace=wrap;html=1;" vertex="1" parent="WkTNOZYevjF56CsXgl2D-72">
          <mxGeometry y="30" width="160" height="30" as="geometry" />
        </mxCell>
        <mxCell id="WkTNOZYevjF56CsXgl2D-74" value="practiceType" style="text;strokeColor=none;fillColor=none;spacingLeft=4;spacingRight=4;overflow=hidden;rotatable=0;points=[[0,0.5],[1,0.5]];portConstraint=eastwest;fontSize=12;whiteSpace=wrap;html=1;" vertex="1" parent="WkTNOZYevjF56CsXgl2D-72">
          <mxGeometry y="60" width="160" height="30" as="geometry" />
        </mxCell>
        <mxCell id="WkTNOZYevjF56CsXgl2D-75" value="isComplete" style="text;strokeColor=none;fillColor=none;spacingLeft=4;spacingRight=4;overflow=hidden;rotatable=0;points=[[0,0.5],[1,0.5]];portConstraint=eastwest;fontSize=12;whiteSpace=wrap;html=1;" vertex="1" parent="WkTNOZYevjF56CsXgl2D-72">
          <mxGeometry y="90" width="160" height="30" as="geometry" />
        </mxCell>
        <mxCell id="WkTNOZYevjF56CsXgl2D-77" value="SelectPracticeType" style="swimlane;fontStyle=0;childLayout=stackLayout;horizontal=1;startSize=20;horizontalStack=0;resizeParent=1;resizeParentMax=0;resizeLast=0;collapsible=1;marginBottom=0;align=center;fontSize=14;" vertex="1" parent="1">
          <mxGeometry x="465" y="780" width="160" height="50" as="geometry" />
        </mxCell>
        <mxCell id="WkTNOZYevjF56CsXgl2D-78" value="practiceTypes" style="text;strokeColor=none;fillColor=none;spacingLeft=4;spacingRight=4;overflow=hidden;rotatable=0;points=[[0,0.5],[1,0.5]];portConstraint=eastwest;fontSize=12;whiteSpace=wrap;html=1;" vertex="1" parent="WkTNOZYevjF56CsXgl2D-77">
          <mxGeometry y="20" width="160" height="30" as="geometry" />
        </mxCell>
        <mxCell id="WkTNOZYevjF56CsXgl2D-82" style="edgeStyle=orthogonalEdgeStyle;rounded=0;orthogonalLoop=1;jettySize=auto;html=1;exitX=1;exitY=0.25;exitDx=0;exitDy=0;entryX=0;entryY=0.5;entryDx=0;entryDy=0;" edge="1" parent="1" source="WkTNOZYevjF56CsXgl2D-27" target="WkTNOZYevjF56CsXgl2D-75">
          <mxGeometry relative="1" as="geometry">
            <Array as="points">
              <mxPoint x="220" y="834" />
              <mxPoint x="220" y="735" />
            </Array>
          </mxGeometry>
        </mxCell>
        <mxCell id="WkTNOZYevjF56CsXgl2D-87" value="TaskCard" style="swimlane;fontStyle=0;childLayout=stackLayout;horizontal=1;startSize=20;horizontalStack=0;resizeParent=1;resizeParentMax=0;resizeLast=0;collapsible=1;marginBottom=0;align=center;fontSize=14;" vertex="1" parent="1">
          <mxGeometry x="470" y="590" width="160" height="140" as="geometry" />
        </mxCell>
        <mxCell id="WkTNOZYevjF56CsXgl2D-88" value="taskType" style="text;strokeColor=none;fillColor=none;spacingLeft=4;spacingRight=4;overflow=hidden;rotatable=0;points=[[0,0.5],[1,0.5]];portConstraint=eastwest;fontSize=12;whiteSpace=wrap;html=1;" vertex="1" parent="WkTNOZYevjF56CsXgl2D-87">
          <mxGeometry y="20" width="160" height="30" as="geometry" />
        </mxCell>
        <mxCell id="WkTNOZYevjF56CsXgl2D-89" value="task" style="text;strokeColor=none;fillColor=none;spacingLeft=4;spacingRight=4;overflow=hidden;rotatable=0;points=[[0,0.5],[1,0.5]];portConstraint=eastwest;fontSize=12;whiteSpace=wrap;html=1;" vertex="1" parent="WkTNOZYevjF56CsXgl2D-87">
          <mxGeometry y="50" width="160" height="30" as="geometry" />
        </mxCell>
        <mxCell id="WkTNOZYevjF56CsXgl2D-90" value="onComplete" style="text;strokeColor=none;fillColor=none;spacingLeft=4;spacingRight=4;overflow=hidden;rotatable=0;points=[[0,0.5],[1,0.5]];portConstraint=eastwest;fontSize=12;whiteSpace=wrap;html=1;" vertex="1" parent="WkTNOZYevjF56CsXgl2D-87">
          <mxGeometry y="80" width="160" height="30" as="geometry" />
        </mxCell>
        <mxCell id="WkTNOZYevjF56CsXgl2D-91" value="onFail" style="text;strokeColor=none;fillColor=none;spacingLeft=4;spacingRight=4;overflow=hidden;rotatable=0;points=[[0,0.5],[1,0.5]];portConstraint=eastwest;fontSize=12;whiteSpace=wrap;html=1;" vertex="1" parent="WkTNOZYevjF56CsXgl2D-87">
          <mxGeometry y="110" width="160" height="30" as="geometry" />
        </mxCell>
        <mxCell id="WkTNOZYevjF56CsXgl2D-93" style="edgeStyle=orthogonalEdgeStyle;rounded=0;orthogonalLoop=1;jettySize=auto;html=1;exitX=1;exitY=0.25;exitDx=0;exitDy=0;entryX=0;entryY=0.5;entryDx=0;entryDy=0;" edge="1" parent="1" source="WkTNOZYevjF56CsXgl2D-44" target="WkTNOZYevjF56CsXgl2D-18">
          <mxGeometry relative="1" as="geometry" />
        </mxCell>
        <mxCell id="WkTNOZYevjF56CsXgl2D-94" style="edgeStyle=orthogonalEdgeStyle;rounded=0;orthogonalLoop=1;jettySize=auto;html=1;exitX=1;exitY=1;exitDx=0;exitDy=0;entryX=0.09;entryY=1.031;entryDx=0;entryDy=0;entryPerimeter=0;" edge="1" parent="1" source="WkTNOZYevjF56CsXgl2D-27" target="WkTNOZYevjF56CsXgl2D-18">
          <mxGeometry relative="1" as="geometry">
            <Array as="points">
              <mxPoint x="220" y="876" />
              <mxPoint x="220" y="896" />
              <mxPoint x="724" y="896" />
            </Array>
          </mxGeometry>
        </mxCell>
        <mxCell id="WkTNOZYevjF56CsXgl2D-95" value="ProgressList" style="swimlane;fontStyle=0;childLayout=stackLayout;horizontal=1;startSize=26;horizontalStack=0;resizeParent=1;resizeParentMax=0;resizeLast=0;collapsible=1;marginBottom=0;align=center;fontSize=14;" vertex="1" parent="1">
          <mxGeometry x="250" y="960" width="160" height="116" as="geometry" />
        </mxCell>
        <mxCell id="WkTNOZYevjF56CsXgl2D-96" value="progress" style="text;strokeColor=none;fillColor=none;spacingLeft=4;spacingRight=4;overflow=hidden;rotatable=0;points=[[0,0.5],[1,0.5]];portConstraint=eastwest;fontSize=12;whiteSpace=wrap;html=1;" vertex="1" parent="WkTNOZYevjF56CsXgl2D-95">
          <mxGeometry y="26" width="160" height="30" as="geometry" />
        </mxCell>
        <mxCell id="WkTNOZYevjF56CsXgl2D-97" value="taskTypeToShow" style="text;strokeColor=none;fillColor=none;spacingLeft=4;spacingRight=4;overflow=hidden;rotatable=0;points=[[0,0.5],[1,0.5]];portConstraint=eastwest;fontSize=12;whiteSpace=wrap;html=1;" vertex="1" parent="WkTNOZYevjF56CsXgl2D-95">
          <mxGeometry y="56" width="160" height="30" as="geometry" />
        </mxCell>
        <mxCell id="WkTNOZYevjF56CsXgl2D-98" value="completedOnlyToShow" style="text;strokeColor=none;fillColor=none;spacingLeft=4;spacingRight=4;overflow=hidden;rotatable=0;points=[[0,0.5],[1,0.5]];portConstraint=eastwest;fontSize=12;whiteSpace=wrap;html=1;" vertex="1" parent="WkTNOZYevjF56CsXgl2D-95">
          <mxGeometry y="86" width="160" height="30" as="geometry" />
        </mxCell>
        <mxCell id="WkTNOZYevjF56CsXgl2D-57" style="edgeStyle=orthogonalEdgeStyle;rounded=0;orthogonalLoop=1;jettySize=auto;html=1;exitX=1.006;exitY=-0.2;exitDx=0;exitDy=0;entryX=0;entryY=0.5;entryDx=0;entryDy=0;exitPerimeter=0;" edge="1" parent="1" source="WkTNOZYevjF56CsXgl2D-47" target="WkTNOZYevjF56CsXgl2D-17">
          <mxGeometry relative="1" as="geometry">
            <Array as="points">
              <mxPoint x="660" y="110" />
              <mxPoint x="660" y="505" />
            </Array>
          </mxGeometry>
        </mxCell>
        <mxCell id="WkTNOZYevjF56CsXgl2D-56" style="edgeStyle=orthogonalEdgeStyle;rounded=0;orthogonalLoop=1;jettySize=auto;html=1;exitX=1;exitY=0.5;exitDx=0;exitDy=0;entryX=0;entryY=0.5;entryDx=0;entryDy=0;" edge="1" parent="1" source="WkTNOZYevjF56CsXgl2D-47" target="WkTNOZYevjF56CsXgl2D-6">
          <mxGeometry relative="1" as="geometry" />
        </mxCell>
        <mxCell id="WkTNOZYevjF56CsXgl2D-55" style="edgeStyle=orthogonalEdgeStyle;rounded=0;orthogonalLoop=1;jettySize=auto;html=1;exitX=1.006;exitY=0.133;exitDx=0;exitDy=0;entryX=0;entryY=0.5;entryDx=0;entryDy=0;exitPerimeter=0;" edge="1" parent="1" source="WkTNOZYevjF56CsXgl2D-48" target="WkTNOZYevjF56CsXgl2D-52">
          <mxGeometry relative="1" as="geometry" />
        </mxCell>
        <mxCell id="WkTNOZYevjF56CsXgl2D-68" style="edgeStyle=orthogonalEdgeStyle;rounded=0;orthogonalLoop=1;jettySize=auto;html=1;exitX=1;exitY=0.5;exitDx=0;exitDy=0;entryX=0;entryY=0.5;entryDx=0;entryDy=0;" edge="1" parent="1" source="WkTNOZYevjF56CsXgl2D-59" target="WkTNOZYevjF56CsXgl2D-64">
          <mxGeometry relative="1" as="geometry" />
        </mxCell>
        <mxCell id="WkTNOZYevjF56CsXgl2D-69" style="edgeStyle=orthogonalEdgeStyle;rounded=0;orthogonalLoop=1;jettySize=auto;html=1;exitX=1;exitY=0.5;exitDx=0;exitDy=0;entryX=0;entryY=0.5;entryDx=0;entryDy=0;" edge="1" parent="1" source="WkTNOZYevjF56CsXgl2D-60" target="WkTNOZYevjF56CsXgl2D-30">
          <mxGeometry relative="1" as="geometry">
            <Array as="points">
              <mxPoint x="460" y="501" />
              <mxPoint x="460" y="550" />
              <mxPoint x="670" y="550" />
              <mxPoint x="670" y="179" />
            </Array>
          </mxGeometry>
        </mxCell>
        <mxCell id="WkTNOZYevjF56CsXgl2D-71" style="edgeStyle=orthogonalEdgeStyle;rounded=0;orthogonalLoop=1;jettySize=auto;html=1;exitX=1;exitY=0.5;exitDx=0;exitDy=0;entryX=0;entryY=0.5;entryDx=0;entryDy=0;" edge="1" parent="1" source="WkTNOZYevjF56CsXgl2D-43" target="WkTNOZYevjF56CsXgl2D-59">
          <mxGeometry relative="1" as="geometry" />
        </mxCell>
        <mxCell id="WkTNOZYevjF56CsXgl2D-76" style="edgeStyle=orthogonalEdgeStyle;rounded=0;orthogonalLoop=1;jettySize=auto;html=1;exitX=1;exitY=0.5;exitDx=0;exitDy=0;entryX=0;entryY=0.5;entryDx=0;entryDy=0;" edge="1" parent="1" source="WkTNOZYevjF56CsXgl2D-45" target="WkTNOZYevjF56CsXgl2D-73">
          <mxGeometry relative="1" as="geometry" />
        </mxCell>
        <mxCell id="WkTNOZYevjF56CsXgl2D-92" style="edgeStyle=orthogonalEdgeStyle;rounded=0;orthogonalLoop=1;jettySize=auto;html=1;exitX=1;exitY=0.5;exitDx=0;exitDy=0;entryX=0;entryY=0.5;entryDx=0;entryDy=0;" edge="1" parent="1" source="WkTNOZYevjF56CsXgl2D-74" target="WkTNOZYevjF56CsXgl2D-89">
          <mxGeometry relative="1" as="geometry">
            <Array as="points">
              <mxPoint x="430" y="705" />
              <mxPoint x="430" y="655" />
            </Array>
          </mxGeometry>
        </mxCell>
        <mxCell id="WkTNOZYevjF56CsXgl2D-81" style="edgeStyle=orthogonalEdgeStyle;rounded=0;orthogonalLoop=1;jettySize=auto;html=1;exitX=1;exitY=0.5;exitDx=0;exitDy=0;entryX=0;entryY=0.5;entryDx=0;entryDy=0;" edge="1" parent="1" source="WkTNOZYevjF56CsXgl2D-28" target="WkTNOZYevjF56CsXgl2D-78">
          <mxGeometry relative="1" as="geometry" />
        </mxCell>
        <mxCell id="WkTNOZYevjF56CsXgl2D-99" style="edgeStyle=orthogonalEdgeStyle;rounded=0;orthogonalLoop=1;jettySize=auto;html=1;exitX=1;exitY=0.5;exitDx=0;exitDy=0;entryX=0;entryY=0.5;entryDx=0;entryDy=0;" edge="1" parent="1" source="WkTNOZYevjF56CsXgl2D-34" target="WkTNOZYevjF56CsXgl2D-96">
          <mxGeometry relative="1" as="geometry" />
        </mxCell>
        <mxCell id="WkTNOZYevjF56CsXgl2D-100" style="edgeStyle=orthogonalEdgeStyle;rounded=0;orthogonalLoop=1;jettySize=auto;html=1;exitX=1;exitY=0.5;exitDx=0;exitDy=0;entryX=0.295;entryY=0.976;entryDx=0;entryDy=0;entryPerimeter=0;" edge="1" parent="1" source="WkTNOZYevjF56CsXgl2D-96" target="WkTNOZYevjF56CsXgl2D-18">
          <mxGeometry relative="1" as="geometry" />
        </mxCell>
        <mxCell id="WkTNOZYevjF56CsXgl2D-105" value="Entities" style="text;html=1;align=center;verticalAlign=middle;whiteSpace=wrap;rounded=0;" vertex="1" parent="1">
          <mxGeometry x="750" y="-70" width="60" height="30" as="geometry" />
        </mxCell>
        <mxCell id="WkTNOZYevjF56CsXgl2D-107" value="Components" style="text;html=1;align=center;verticalAlign=middle;whiteSpace=wrap;rounded=0;" vertex="1" parent="1">
          <mxGeometry x="515" y="-70" width="60" height="30" as="geometry" />
        </mxCell>
        <mxCell id="WkTNOZYevjF56CsXgl2D-110" value="Widgets" style="text;html=1;align=center;verticalAlign=middle;whiteSpace=wrap;rounded=0;" vertex="1" parent="1">
          <mxGeometry x="290" y="-70" width="60" height="30" as="geometry" />
        </mxCell>
        <mxCell id="WkTNOZYevjF56CsXgl2D-111" value="Pages" style="text;html=1;align=center;verticalAlign=middle;whiteSpace=wrap;rounded=0;" vertex="1" parent="1">
          <mxGeometry x="80" y="-70" width="60" height="30" as="geometry" />
        </mxCell>
        <mxCell id="WkTNOZYevjF56CsXgl2D-113" value="Shared" style="rounded=1;whiteSpace=wrap;html=1;dashed=1;" vertex="1" parent="1">
          <mxGeometry x="10" y="-390" width="880" height="70" as="geometry" />
        </mxCell>
      </root>
    </mxGraphModel>
  </diagram>
</mxfile>
